<svg xmlns="http://www.w3.org/2000/svg" viewBox="0 0 1135.11 279.11"><title>apollo-logo</title><g id="Capa_2" data-name="Capa 2"><g id="Capa_1-2" data-name="Capa 1"><path d="M366.88,30H399.8l72.86,191.59H434.34l-17.81-47.76H349.61l-17.54,47.76H293.75Zm42.91,117.65L383.34,72.4l-27.52,75.29Z"/><path d="M574.93,224.33q-16.74,0-29.14-7.42a52.71,52.71,0,0,1-19.43-20.11v82.31H490.2V80.23h31.57v24.29A57.6,57.6,0,0,1,542,85q12.4-7.14,28.6-7.15a60.7,60.7,0,0,1,26.45,5.8A65.7,65.7,0,0,1,618,99.25a73,73,0,0,1,13.76,23.21,79.88,79.88,0,0,1,5,28.2,89.3,89.3,0,0,1-4.58,28.87A74.16,74.16,0,0,1,619.32,203a59.82,59.82,0,0,1-19.56,15.65A54.75,54.75,0,0,1,574.93,224.33Zm-12.14-30.77a32.47,32.47,0,0,0,15-3.5,36.3,36.3,0,0,0,11.74-9.45,44.19,44.19,0,0,0,7.56-13.76,49.55,49.55,0,0,0,2.7-16.19,45.69,45.69,0,0,0-3-16.6,41.48,41.48,0,0,0-8.23-13.35,38.36,38.36,0,0,0-12.42-8.91,37.12,37.12,0,0,0-15.51-3.24,34,34,0,0,0-10.53,1.76,37,37,0,0,0-10,5,43.7,43.7,0,0,0-8.23,7.56,31,31,0,0,0-5.53,9.44V165.5a47.88,47.88,0,0,0,14.84,20.1Q551.17,193.57,562.79,193.56Z"/><path d="M726.58,224.33q-17.28,0-31-5.94a69.42,69.42,0,0,1-23.34-16.06A70.57,70.57,0,0,1,657.5,179a76.14,76.14,0,0,1-5.13-27.79,77,77,0,0,1,5.13-28.07,70.77,70.77,0,0,1,14.71-23.34,69.68,69.68,0,0,1,23.34-16.05q13.76-5.94,31-5.94t30.9,5.94a70.1,70.1,0,0,1,23.2,16.05,70.94,70.94,0,0,1,14.71,23.34,77,77,0,0,1,5.13,28.07A76.14,76.14,0,0,1,795.39,179a72,72,0,0,1-14.57,23.34,68.09,68.09,0,0,1-23.21,16.06Q743.86,224.33,726.58,224.33Zm-37-73.13a49.4,49.4,0,0,0,2.83,17.13,41.87,41.87,0,0,0,7.83,13.36A35,35,0,0,0,712,190.46a35.79,35.79,0,0,0,29.14,0,35,35,0,0,0,11.74-8.77,41.35,41.35,0,0,0,7.82-13.49,50.38,50.38,0,0,0,2.84-17.27,49.59,49.59,0,0,0-2.84-17,41.24,41.24,0,0,0-7.82-13.49,35,35,0,0,0-11.74-8.77,34.46,34.46,0,0,0-14.57-3.11A33.18,33.18,0,0,0,712,111.8a36.62,36.62,0,0,0-11.74,8.91,41.44,41.44,0,0,0-7.83,13.49A49.79,49.79,0,0,0,689.61,151.2Z"/><path d="M824.53,24.64h36.16V176.29c0,5.22,1.25,9.27,3.78,12.15s6.11,4.32,10.79,4.32a27.07,27.07,0,0,0,7.15-1.08,48.33,48.33,0,0,0,7.42-2.7l4.86,27.52a69.89,69.89,0,0,1-17,5.4,93.61,93.61,0,0,1-17.54,1.89q-17,0-26.31-9T824.53,189Z"/><path d="M910.07,24.64h36.16V176.29q0,7.83,3.77,12.15t10.8,4.32a27.07,27.07,0,0,0,7.15-1.08,48.72,48.72,0,0,0,7.42-2.7l4.86,27.52a70,70,0,0,1-17,5.4,93.61,93.61,0,0,1-17.54,1.89q-17,0-26.31-9T910.07,189Z"/><path d="M1061.18,224.33a77.61,77.61,0,0,1-31-5.94,69.62,69.62,0,0,1-23.34-16.06A70.71,70.71,0,0,1,992.1,179,76.14,76.14,0,0,1,987,151.2a77,77,0,0,1,5.13-28.07,70.91,70.91,0,0,1,14.7-23.34,69.88,69.88,0,0,1,23.34-16.05,77.61,77.61,0,0,1,31-5.94q17.27,0,30.89,5.94a70.14,70.14,0,0,1,23.21,16.05A71.1,71.1,0,0,1,1130,123.13a77.17,77.17,0,0,1,5.12,28.07A76.34,76.34,0,0,1,1130,179a72,72,0,0,1-14.57,23.34,68.18,68.18,0,0,1-23.21,16.06A77.59,77.59,0,0,1,1061.18,224.33Zm-37-73.13a49.17,49.17,0,0,0,2.83,17.13,41.87,41.87,0,0,0,7.83,13.36,34.87,34.87,0,0,0,11.74,8.77,35.79,35.79,0,0,0,29.14,0,35.06,35.06,0,0,0,11.74-8.77,41.7,41.7,0,0,0,7.82-13.49,50.38,50.38,0,0,0,2.84-17.27,49.59,49.59,0,0,0-2.84-17,41.6,41.6,0,0,0-7.82-13.49,35.06,35.06,0,0,0-11.74-8.77,34.46,34.46,0,0,0-14.57-3.11,33.18,33.18,0,0,0-14.57,3.24,36.51,36.51,0,0,0-11.74,8.91A41.44,41.44,0,0,0,1027,134.2,49.55,49.55,0,0,0,1024.21,151.2Z"/><g id="Capa_1-2-2" data-name="Capa 1-2"><path d="M125.83,0A125.84,125.84,0,1,0,251.67,125.83,125.84,125.84,0,0,0,125.83,0Zm75.25,155.55-6.59,27.24a3.28,3.28,0,0,1-.38.83L165.8,226.3a106.91,106.91,0,0,1-35.06,7.58,2.44,2.44,0,0,1,0-.54v-46a2.82,2.82,0,0,0-.22-1.11L118,156.32a3,3,0,0,1-.21-1.1V141.93a2.85,2.85,0,0,0-1.42-2.53l-19-11.25a3.27,3.27,0,0,0-.67-.28l-25.18-7.32a3,3,0,0,1-1.48-1L59.67,106A2.91,2.91,0,0,0,58,104.89L48.31,103a2.91,2.91,0,0,1-2-1.47l-15-28.19A108.71,108.71,0,0,1,90.12,23.78l25,19.52a2.92,2.92,0,0,0,2.25.57L123,43a2.91,2.91,0,0,0,2.38-3.28L122.1,18v-.17c1.27,0,2.53-.07,3.8-.07a107.16,107.16,0,0,1,31.61,4.7l10.28,27.67a2.88,2.88,0,0,1-1.71,3.7,1.32,1.32,0,0,1-.3.09l-26.42,6.44a2.92,2.92,0,0,0-1.53,1L119.27,83.77a2.87,2.87,0,0,0-.62,2.34l1.26,7.12a2.17,2.17,0,0,1,0,.51,2.88,2.88,0,0,1-5,1.92l-5.63-6.32a2.86,2.86,0,0,0-2.9-.81L95.14,91.86a2.86,2.86,0,0,0-2,3l.61,7.94a2.86,2.86,0,0,0,2.53,2.63l13.28,1.7a2.88,2.88,0,0,1,2.53,2.41l1.13,7.22a2.84,2.84,0,0,0,.85,1.65l19,18.11a2.91,2.91,0,0,0,2.26.78l25-2.34a17.86,17.86,0,0,1,8.86,1.48l28.86,13A5.35,5.35,0,0,1,201.08,155.55Z"/></g></g></g></svg>